<?xml version="1.0" encoding="UTF-8" standalone="no"?> <svg width="64" height="64" viewBox="0 0 64 64" fill="none" xmlns="http://www.w3.org/2000/svg">
<path d="M56.879 29.707L55.806 30.779C55.7544 29.5106 55.2201 28.3099 54.3125 27.4224C53.4049 26.5349 52.1925 26.0277 50.9233 26.0044C49.6541 25.9812 48.424 26.4437 47.4845 27.2974C46.545 28.151 45.9671 29.3314 45.869 30.597L44.979 29.707C44.4074 29.1615 43.6476 28.8572 42.8575 28.8572C42.0674 28.8572 41.3076 29.1615 40.736 29.707C40.1736 30.2696 39.8577 31.0325 39.8577 31.828C39.8577 32.6235 40.1736 33.3864 40.736 33.949L41.394 34.606C41.5826 34.7882 41.8352 34.889 42.0974 34.8867C42.3596 34.8844 42.6104 34.7792 42.7958 34.5938C42.9813 34.4084 43.0864 34.1576 43.0887 33.8954C43.091 33.6332 42.9902 33.3806 42.808 33.192L42.15 32.535C41.9626 32.3475 41.8572 32.0932 41.8572 31.828C41.8572 31.5628 41.9626 31.3085 42.15 31.121C42.3407 30.9391 42.594 30.8377 42.8575 30.8377C43.121 30.8377 43.3744 30.9391 43.565 31.121L46.686 34.242C47.8112 35.3671 49.3373 35.9992 50.9285 35.9992C52.5198 35.9992 54.0458 35.3671 55.171 34.242L58.293 31.121C58.4832 30.9385 58.7365 30.8366 59 30.8366C59.2636 30.8366 59.5169 30.9385 59.707 31.121C59.8945 31.3085 59.9998 31.5628 59.9998 31.828C59.9998 32.0932 59.8945 32.3475 59.707 32.535L55.586 36.657C55.0272 37.2129 54.5841 37.8742 54.2825 38.6025C53.9809 39.3308 53.8268 40.1117 53.829 40.9V43H47.829V40.7C47.8309 39.9118 47.6766 39.1311 47.3748 38.403C47.073 37.6748 46.6299 37.0138 46.071 36.458L45.636 36.023C45.4485 35.8354 45.1941 35.7299 44.9289 35.7298C44.6636 35.7297 44.4092 35.835 44.2215 36.0225C44.0339 36.21 43.9284 36.4644 43.9283 36.7296C43.9282 36.9949 44.0335 37.2494 44.221 37.437L44.657 37.872C45.0297 38.2425 45.3252 38.6832 45.5263 39.1686C45.7275 39.654 45.8304 40.1745 45.829 40.7V56.215C45.2697 56.4354 44.7896 56.8188 44.4508 57.3154C44.112 57.8119 43.9302 58.3989 43.929 59V61C43.929 61.2652 44.0344 61.5196 44.2219 61.7071C44.4095 61.8946 44.6638 62 44.929 62H56.929C57.1942 62 57.4486 61.8946 57.6361 61.7071C57.8237 61.5196 57.929 61.2652 57.929 61V59C57.9268 58.3639 57.7221 57.7451 57.3445 57.2332C56.9669 56.7213 56.4361 56.3429 55.829 56.153V48C55.829 47.7348 55.7237 47.4804 55.5361 47.2929C55.3486 47.1054 55.0942 47 54.829 47C54.5638 47 54.3095 47.1054 54.1219 47.2929C53.9344 47.4804 53.829 47.7348 53.829 48V56H51.829V49C51.829 48.7348 51.7237 48.4804 51.5361 48.2929C51.3486 48.1054 51.0942 48 50.829 48C50.5638 48 50.3095 48.1054 50.1219 48.2929C49.9344 48.4804 49.829 48.7348 49.829 49V56H47.829V45H54.829C55.0942 45 55.3486 44.8946 55.5361 44.7071C55.7237 44.5196 55.829 44.2652 55.829 44V40.9C55.8276 40.3745 55.9303 39.8539 56.1313 39.3683C56.3323 38.8827 56.6276 38.4418 57 38.071L61.121 33.95C61.3997 33.6714 61.6207 33.3407 61.7715 32.9767C61.9223 32.6127 61.9999 32.2225 61.9999 31.8285C61.9999 31.4345 61.9223 31.0443 61.7715 30.6803C61.6207 30.3163 61.3997 29.9856 61.121 29.707C60.5495 29.1618 59.7899 28.8577 59 28.8577C58.2101 28.8577 57.4506 29.1618 56.879 29.707ZM50.829 28C51.4224 28 52.0024 28.176 52.4957 28.5056C52.9891 28.8352 53.3736 29.3038 53.6007 29.852C53.8277 30.4001 53.8871 31.0033 53.7714 31.5853C53.6556 32.1672 53.3699 32.7018 52.9503 33.1213C52.5308 33.5409 51.9962 33.8266 51.4143 33.9424C50.8324 34.0581 50.2292 33.9987 49.681 33.7716C49.1328 33.5446 48.6643 33.1601 48.3346 32.6667C48.005 32.1734 47.829 31.5933 47.829 31C47.829 30.2044 48.1451 29.4413 48.7077 28.8787C49.2703 28.3161 50.0334 28 50.829 28V28ZM54.929 58C55.1942 58 55.4486 58.1054 55.6361 58.2929C55.8237 58.4804 55.929 58.7348 55.929 59V60H51.929V58H54.929ZM49.929 58V60H45.929V59C45.929 58.7348 46.0344 58.4804 46.2219 58.2929C46.4095 58.1054 46.6638 58 46.929 58H49.929Z" fill="black"/>
<path d="M19.021 29.707L18.131 30.597C18.0329 29.3314 17.4551 28.151 16.5156 27.2974C15.5761 26.4437 14.3459 25.9812 13.0767 26.0044C11.8075 26.0277 10.5951 26.5349 9.68753 27.4224C8.77992 28.3099 8.24566 29.5106 8.194 30.779L7.122 29.707C6.55038 29.1615 5.79062 28.8572 5.0005 28.8572C4.21038 28.8572 3.45062 29.1615 2.879 29.707C2.31659 30.2696 2.00064 31.0325 2.00064 31.828C2.00064 32.6235 2.31659 33.3864 2.879 33.949L7 38.071C7.37247 38.4418 7.66774 38.8827 7.86873 39.3683C8.06973 39.8539 8.17246 40.3745 8.171 40.9V56.153C7.56393 56.3429 7.03312 56.7213 6.65554 57.2332C6.27795 57.7451 6.07321 58.3639 6.071 59V61C6.071 61.2652 6.17636 61.5196 6.36389 61.7071C6.55143 61.8946 6.80578 62 7.071 62H19.071C19.3362 62 19.5906 61.8946 19.7781 61.7071C19.9656 61.5196 20.071 61.2652 20.071 61V59C20.0696 58.399 19.8877 57.8123 19.5489 57.3159C19.2102 56.8196 18.7301 56.4364 18.171 56.216V48C18.171 47.7348 18.0656 47.4804 17.8781 47.2929C17.6906 47.1054 17.4362 47 17.171 47C16.9058 47 16.6514 47.1054 16.4639 47.2929C16.2764 47.4804 16.171 47.7348 16.171 48V56H14.171V49C14.171 48.7348 14.0656 48.4804 13.8781 48.2929C13.6906 48.1054 13.4362 48 13.171 48C12.9058 48 12.6514 48.1054 12.4639 48.2929C12.2764 48.4804 12.171 48.7348 12.171 49V56H10.171V45H17.171C17.4362 45 17.6906 44.8946 17.8781 44.7071C18.0656 44.5196 18.171 44.2652 18.171 44V40.7C18.1697 40.1743 18.2727 39.6536 18.474 39.168C18.6754 38.6824 18.9711 38.2415 19.344 37.871L19.779 37.436C19.8744 37.3436 19.9504 37.2332 20.0026 37.1111C20.0548 36.989 20.0822 36.8578 20.0832 36.725C20.0842 36.5922 20.0587 36.4606 20.0082 36.3377C19.9578 36.2149 19.8834 36.1034 19.7893 36.0096C19.6953 35.9159 19.5836 35.8418 19.4606 35.7917C19.3376 35.7416 19.2059 35.7165 19.0732 35.7178C18.9404 35.7191 18.8092 35.7469 18.6873 35.7995C18.5654 35.852 18.4551 35.9284 18.363 36.024L17.929 36.458C17.3701 37.0138 16.927 37.6748 16.6252 38.403C16.3235 39.1311 16.1691 39.9118 16.171 40.7V43H10.171V40.9C10.1731 40.1119 10.0189 39.3312 9.71731 38.6031C9.41572 37.8749 8.97274 37.2138 8.414 36.658L4.292 32.534C4.10483 32.3465 3.99971 32.0924 3.99971 31.8275C3.99971 31.5626 4.10483 31.3085 4.292 31.121C4.48213 30.9385 4.73546 30.8366 4.999 30.8366C5.26254 30.8366 5.51587 30.9385 5.706 31.121L8.827 34.242C9.95221 35.3671 11.4783 35.9992 13.0695 35.9992C14.6607 35.9992 16.1868 35.3671 17.312 34.242L20.434 31.121C20.6241 30.9385 20.8775 30.8366 21.141 30.8366C21.4045 30.8366 21.6579 30.9385 21.848 31.121C22.0355 31.3085 22.1408 31.5628 22.1408 31.828C22.1408 32.0932 22.0355 32.3475 21.848 32.535L21.191 33.192C21.0035 33.3796 20.8982 33.6341 20.8983 33.8994C20.8984 34.1646 21.0039 34.419 21.1915 34.6065C21.3791 34.794 21.6336 34.8993 21.8989 34.8992C22.1641 34.8991 22.4185 34.7936 22.606 34.606L23.262 33.95C23.5406 33.6714 23.7617 33.3407 23.9124 32.9767C24.0632 32.6127 24.1409 32.2225 24.1409 31.8285C24.1409 31.4345 24.0632 31.0443 23.9124 30.6803C23.7617 30.3163 23.5406 29.9856 23.262 29.707C22.6905 29.1621 21.9311 28.8581 21.1415 28.8581C20.3519 28.8581 19.5925 29.1621 19.021 29.707V29.707ZM17.071 58C17.3362 58 17.5906 58.1054 17.7781 58.2929C17.9656 58.4804 18.071 58.7348 18.071 59V60H14.071V58H17.071ZM12.071 58V60H8.071V59C8.071 58.7348 8.17636 58.4804 8.36389 58.2929C8.55143 58.1054 8.80578 58 9.071 58H12.071ZM13.171 28C13.7643 28 14.3444 28.176 14.8377 28.5056C15.3311 28.8352 15.7156 29.3038 15.9426 29.852C16.1697 30.4001 16.2291 31.0033 16.1134 31.5853C15.9976 32.1672 15.7119 32.7018 15.2923 33.1213C14.8728 33.5409 14.3382 33.8266 13.7563 33.9424C13.1743 34.0581 12.5711 33.9987 12.023 33.7716C11.4748 33.5446 11.0062 33.1601 10.6766 32.6667C10.3469 32.1734 10.171 31.5933 10.171 31C10.171 30.2044 10.4871 29.4413 11.0497 28.8787C11.6123 28.3161 12.3754 28 13.171 28V28Z" fill="black"/>
<path d="M36.9 47.153V39C36.9 38.7348 36.7946 38.4804 36.6071 38.2929C36.4196 38.1053 36.1652 38 35.9 38C35.6348 38 35.3804 38.1053 35.1929 38.2929C35.0054 38.4804 34.9 38.7348 34.9 39V47H32.9V40C32.9 39.7348 32.7946 39.4804 32.6071 39.2929C32.4196 39.1053 32.1652 39 31.9 39C31.6348 39 31.3804 39.1053 31.1929 39.2929C31.0054 39.4804 30.9 39.7348 30.9 40V47H28.9V36H35.9C36.1652 36 36.4196 35.8946 36.6071 35.7071C36.7946 35.5196 36.9 35.2652 36.9 35V31.9C36.8986 31.3745 37.0015 30.854 37.2027 30.3686C37.4039 29.8831 37.6993 29.4424 38.072 29.072L42.193 24.95C42.7395 24.3842 43.0419 23.6264 43.035 22.8398C43.0282 22.0532 42.7127 21.3008 42.1565 20.7445C41.6002 20.1883 40.8478 19.8728 40.0612 19.866C39.2746 19.8591 38.5168 20.1615 37.951 20.708L36.877 21.78C36.825 20.5117 36.2905 19.3112 35.3827 18.4239C34.4749 17.5366 33.2625 17.0297 31.9933 17.0067C30.7242 16.9837 29.4942 17.4464 28.5549 18.3002C27.6156 19.154 27.0379 20.3344 26.94 21.6L26.05 20.71C25.4859 20.1549 24.7253 19.8452 23.9339 19.8483C23.1425 19.8514 22.3844 20.1671 21.8247 20.7267C21.265 21.2862 20.9491 22.0443 20.9458 22.8357C20.9425 23.6271 21.252 24.3878 21.807 24.952L22.464 25.609C22.6515 25.7966 22.9059 25.9021 23.1711 25.9022C23.4364 25.9023 23.6909 25.797 23.8785 25.6095C24.0661 25.422 24.1716 25.1676 24.1717 24.9023C24.1718 24.6371 24.0665 24.3826 23.879 24.195L23.222 23.538C23.0398 23.3494 22.939 23.0968 22.9413 22.8346C22.9436 22.5724 23.0488 22.3216 23.2342 22.1362C23.4196 21.9508 23.6704 21.8456 23.9326 21.8433C24.1948 21.841 24.4474 21.9418 24.636 22.124L27.757 25.245C28.3142 25.8022 28.9756 26.2443 29.7037 26.5459C30.4317 26.8475 31.212 27.0027 32 27.0027C32.788 27.0027 33.5683 26.8475 34.2963 26.5459C35.0244 26.2443 35.6858 25.8022 36.243 25.245L39.364 22.124C39.4562 22.0285 39.5666 21.9523 39.6886 21.8999C39.8106 21.8475 39.9418 21.8199 40.0746 21.8187C40.2074 21.8176 40.3391 21.8429 40.462 21.8932C40.5848 21.9434 40.6965 22.0177 40.7904 22.1116C40.8843 22.2055 40.9585 22.3171 41.0088 22.44C41.0591 22.5629 41.0844 22.6946 41.0833 22.8274C41.0821 22.9602 41.0545 23.0914 41.0021 23.2134C40.9497 23.3354 40.8735 23.4457 40.778 23.538L36.657 27.66C36.0983 28.2154 35.6554 28.8762 35.3538 29.604C35.0522 30.3318 34.8979 31.1122 34.9 31.9V34H28.9V31.7C28.9021 30.912 28.7479 30.1313 28.4465 29.4032C28.1451 28.6751 27.7024 28.014 27.144 27.458L26.708 27.023C26.5205 26.8353 26.2661 26.7299 26.0009 26.7298C25.7356 26.7297 25.4811 26.835 25.2935 27.0225C25.1059 27.21 25.0004 27.4644 25.0003 27.7296C25.0002 27.9949 25.1055 28.2493 25.293 28.437L25.729 28.872C26.1013 29.2426 26.3965 29.6834 26.5975 30.1688C26.7985 30.6542 26.9013 31.1746 26.9 31.7V47.216C26.3409 47.4363 25.8608 47.8195 25.5221 48.3159C25.1833 48.8123 25.0014 49.399 25 50V52C25 52.2652 25.1054 52.5196 25.2929 52.7071C25.4804 52.8946 25.7348 53 26 53H38C38.2652 53 38.5196 52.8946 38.7071 52.7071C38.8946 52.5196 39 52.2652 39 52V50C38.9979 49.3639 38.7933 48.7449 38.4157 48.233C38.038 47.7211 37.5072 47.3428 36.9 47.153ZM31.9 19C32.4933 19 33.0734 19.1759 33.5667 19.5056C34.0601 19.8352 34.4446 20.3038 34.6716 20.8519C34.8987 21.4001 34.9581 22.0033 34.8424 22.5853C34.7266 23.1672 34.4409 23.7017 34.0213 24.1213C33.6018 24.5409 33.0672 24.8266 32.4853 24.9423C31.9033 25.0581 31.3001 24.9987 30.7519 24.7716C30.2038 24.5446 29.7352 24.16 29.4056 23.6667C29.0759 23.1733 28.9 22.5933 28.9 22C28.9 21.2043 29.2161 20.4413 29.7787 19.8787C30.3413 19.3161 31.1044 19 31.9 19ZM27 50C27 49.7348 27.1054 49.4804 27.2929 49.2929C27.4804 49.1053 27.7348 49 28 49H31V51H27V50ZM37 51H33V49H36C36.2652 49 36.5196 49.1053 36.7071 49.2929C36.8946 49.4804 37 49.7348 37 50V51Z" fill="black"/>
<path d="M9 6H10V7C10 7.26522 10.1054 7.51957 10.2929 7.70711C10.4804 7.89464 10.7348 8 11 8C11.2652 8 11.5196 7.89464 11.7071 7.70711C11.8946 7.51957 12 7.26522 12 7V6H13C13.2652 6 13.5196 5.89464 13.7071 5.70711C13.8946 5.51957 14 5.26522 14 5C14 4.73478 13.8946 4.48043 13.7071 4.29289C13.5196 4.10536 13.2652 4 13 4H12V3C12 2.73478 11.8946 2.48043 11.7071 2.29289C11.5196 2.10536 11.2652 2 11 2C10.7348 2 10.4804 2.10536 10.2929 2.29289C10.1054 2.48043 10 2.73478 10 3V4H9C8.73478 4 8.48043 4.10536 8.29289 4.29289C8.10536 4.48043 8 4.73478 8 5C8 5.26522 8.10536 5.51957 8.29289 5.70711C8.48043 5.89464 8.73478 6 9 6V6Z" fill="black"/>
<path d="M3 18H4V19C4 19.2652 4.10536 19.5196 4.29289 19.7071C4.48043 19.8946 4.73478 20 5 20C5.26522 20 5.51957 19.8946 5.70711 19.7071C5.89464 19.5196 6 19.2652 6 19V18H7C7.26522 18 7.51957 17.8946 7.70711 17.7071C7.89464 17.5196 8 17.2652 8 17C8 16.7348 7.89464 16.4804 7.70711 16.2929C7.51957 16.1054 7.26522 16 7 16H6V15C6 14.7348 5.89464 14.4804 5.70711 14.2929C5.51957 14.1054 5.26522 14 5 14C4.73478 14 4.48043 14.1054 4.29289 14.2929C4.10536 14.4804 4 14.7348 4 15V16H3C2.73478 16 2.48043 16.1054 2.29289 16.2929C2.10536 16.4804 2 16.7348 2 17C2 17.2652 2.10536 17.5196 2.29289 17.7071C2.48043 17.8946 2.73478 18 3 18V18Z" fill="black"/>
<path d="M10 14C10.5523 14 11 13.5523 11 13C11 12.4477 10.5523 12 10 12C9.44772 12 9 12.4477 9 13C9 13.5523 9.44772 14 10 14Z" fill="black"/>
<path d="M3 13C3.55228 13 4 12.5523 4 12C4 11.4477 3.55228 11 3 11C2.44772 11 2 11.4477 2 12C2 12.5523 2.44772 13 3 13Z" fill="black"/>
<path d="M16.345 9C16.8973 9 17.345 8.55228 17.345 8C17.345 7.44772 16.8973 7 16.345 7C15.7927 7 15.345 7.44772 15.345 8C15.345 8.55228 15.7927 9 16.345 9Z" fill="black"/>
<path d="M36.866 6H37.866V7C37.866 7.26522 37.9714 7.51957 38.1589 7.70711C38.3465 7.89464 38.6008 8 38.866 8C39.1312 8 39.3856 7.89464 39.5731 7.70711C39.7607 7.51957 39.866 7.26522 39.866 7V6H40.866C41.1312 6 41.3856 5.89464 41.5731 5.70711C41.7607 5.51957 41.866 5.26522 41.866 5C41.866 4.73478 41.7607 4.48043 41.5731 4.29289C41.3856 4.10536 41.1312 4 40.866 4H39.866V3C39.866 2.73478 39.7607 2.48043 39.5731 2.29289C39.3856 2.10536 39.1312 2 38.866 2C38.6008 2 38.3465 2.10536 38.1589 2.29289C37.9714 2.48043 37.866 2.73478 37.866 3V4H36.866C36.6008 4 36.3465 4.10536 36.1589 4.29289C35.9714 4.48043 35.866 4.73478 35.866 5C35.866 5.26522 35.9714 5.51957 36.1589 5.70711C36.3465 5.89464 36.6008 6 36.866 6Z" fill="black"/>
<path d="M22 6H23V7C23 7.26522 23.1054 7.51957 23.2929 7.70711C23.4804 7.89464 23.7348 8 24 8C24.2652 8 24.5196 7.89464 24.7071 7.70711C24.8946 7.51957 25 7.26522 25 7V6H26C26.2652 6 26.5196 5.89464 26.7071 5.70711C26.8946 5.51957 27 5.26522 27 5C27 4.73478 26.8946 4.48043 26.7071 4.29289C26.5196 4.10536 26.2652 4 26 4H25V3C25 2.73478 24.8946 2.48043 24.7071 2.29289C24.5196 2.10536 24.2652 2 24 2C23.7348 2 23.4804 2.10536 23.2929 2.29289C23.1054 2.48043 23 2.73478 23 3V4H22C21.7348 4 21.4804 4.10536 21.2929 4.29289C21.1054 4.48043 21 4.73478 21 5C21 5.26522 21.1054 5.51957 21.2929 5.70711C21.4804 5.89464 21.7348 6 22 6Z" fill="black"/>
<path d="M52.5 7.5H53.5V8.5C53.5 8.76522 53.6054 9.01957 53.7929 9.20711C53.9804 9.39464 54.2348 9.5 54.5 9.5C54.7652 9.5 55.0196 9.39464 55.2071 9.20711C55.3946 9.01957 55.5 8.76522 55.5 8.5V7.5H56.5C56.7652 7.5 57.0196 7.39464 57.2071 7.20711C57.3946 7.01957 57.5 6.76522 57.5 6.5C57.5 6.23478 57.3946 5.98043 57.2071 5.79289C57.0196 5.60536 56.7652 5.5 56.5 5.5H55.5V4.5C55.5 4.23478 55.3946 3.98043 55.2071 3.79289C55.0196 3.60536 54.7652 3.5 54.5 3.5C54.2348 3.5 53.9804 3.60536 53.7929 3.79289C53.6054 3.98043 53.5 4.23478 53.5 4.5V5.5H52.5C52.2348 5.5 51.9804 5.60536 51.7929 5.79289C51.6054 5.98043 51.5 6.23478 51.5 6.5C51.5 6.76522 51.6054 7.01957 51.7929 7.20711C51.9804 7.39464 52.2348 7.5 52.5 7.5Z" fill="black"/>
<path d="M61 8C61.5523 8 62 7.55228 62 7C62 6.44772 61.5523 6 61 6C60.4477 6 60 6.44772 60 7C60 7.55228 60.4477 8 61 8Z" fill="black"/>
<path d="M5 7C5.55228 7 6 6.55228 6 6C6 5.44772 5.55228 5 5 5C4.44772 5 4 5.44772 4 6C4 6.55228 4.44772 7 5 7Z" fill="black"/>
<path d="M50 4C50.5523 4 51 3.55228 51 3C51 2.44772 50.5523 2 50 2C49.4477 2 49 2.44772 49 3C49 3.55228 49.4477 4 50 4Z" fill="black"/>
<path d="M32 4C32.5523 4 33 3.55228 33 3C33 2.44772 32.5523 2 32 2C31.4477 2 31 2.44772 31 3C31 3.55228 31.4477 4 32 4Z" fill="black"/>
<path d="M30.958 9C31.5103 9 31.958 8.55228 31.958 8C31.958 7.44772 31.5103 7 30.958 7C30.4057 7 29.958 7.44772 29.958 8C29.958 8.55228 30.4057 9 30.958 9Z" fill="black"/>
<path d="M58 14C58.5523 14 59 13.5523 59 13C59 12.4477 58.5523 12 58 12C57.4477 12 57 12.4477 57 13C57 13.5523 57.4477 14 58 14Z" fill="black"/>
<path d="M42.684 17.948C42.9356 18.0319 43.2102 18.0125 43.4474 17.8939C43.6846 17.7754 43.8651 17.5675 43.949 17.316L46.949 8.31599C47.0328 8.06403 47.0131 7.7891 46.8942 7.55168C46.7753 7.31426 46.567 7.1338 46.315 7.04999C46.0631 6.96618 45.7881 6.98589 45.5507 7.10479C45.3133 7.22369 45.1328 7.43203 45.049 7.68399L42.049 16.684C42.0077 16.8087 41.9913 16.9403 42.0009 17.0713C42.0104 17.2023 42.0457 17.3302 42.1047 17.4475C42.1636 17.5649 42.2451 17.6695 42.3445 17.7554C42.444 17.8413 42.5593 17.9067 42.684 17.948Z" fill="black"/>
<path d="M48 19C48.1501 19.0002 48.2984 18.9666 48.4338 18.9017C48.5691 18.8368 48.6882 18.7422 48.782 18.625L52.782 13.625C52.9477 13.4179 53.0244 13.1534 52.9952 12.8897C52.9659 12.626 52.8331 12.3848 52.626 12.219C52.4189 12.0532 52.1544 11.9765 51.8907 12.0058C51.627 12.0351 51.3857 12.1679 51.22 12.375L47.22 17.375C47.1023 17.522 47.0285 17.6993 47.0071 17.8864C46.9857 18.0736 47.0176 18.2629 47.0991 18.4327C47.1806 18.6025 47.3084 18.7459 47.4678 18.8462C47.6272 18.9466 47.8116 18.9999 48 19Z" fill="black"/>
<path d="M56.768 17.359C56.5982 17.1554 56.3545 17.0275 56.0905 17.0035C55.8265 16.9795 55.5637 17.0613 55.36 17.231L49.36 22.231C49.156 22.4007 49.0279 22.6445 49.0037 22.9088C48.9795 23.173 49.0613 23.436 49.231 23.64C49.4007 23.8439 49.6445 23.9721 49.9088 23.9963C50.173 24.0205 50.436 23.9387 50.64 23.769L56.64 18.769C56.7411 18.6849 56.8246 18.5817 56.8858 18.4653C56.947 18.3489 56.9846 18.2215 56.9965 18.0905C57.0084 17.9596 56.9943 17.8275 56.9551 17.702C56.9159 17.5765 56.8523 17.4599 56.768 17.359Z" fill="black"/>
<path d="M23.168 16.555C23.2409 16.6643 23.3346 16.7581 23.4437 16.8312C23.5529 16.9042 23.6753 16.955 23.8041 16.9808C23.9329 17.0065 24.0655 17.0066 24.1944 16.9811C24.3232 16.9555 24.4457 16.9049 24.555 16.832C24.6643 16.7591 24.7581 16.6654 24.8312 16.5563C24.9042 16.4471 24.955 16.3247 24.9808 16.1959C25.0065 16.0671 25.0066 15.9345 24.9811 15.8056C24.9555 15.6768 24.9049 15.5543 24.832 15.445L20.832 9.44501C20.6848 9.22435 20.456 9.0712 20.1959 9.01925C19.9358 8.9673 19.6657 9.02081 19.445 9.16801C19.2243 9.3152 19.0712 9.54402 19.0192 9.80414C18.9673 10.0643 19.0208 10.3343 19.168 10.555L23.168 16.555Z" fill="black"/>
<path d="M13.293 12.293C13.1055 12.4805 13.0002 12.7348 13.0002 13C13.0002 13.2652 13.1055 13.5195 13.293 13.707L19.293 19.707C19.4816 19.8892 19.7342 19.99 19.9964 19.9877C20.2586 19.9854 20.5094 19.8802 20.6948 19.6948C20.8802 19.5094 20.9854 19.2586 20.9877 18.9964C20.99 18.7342 20.8892 18.4816 20.707 18.293L14.707 12.293C14.5195 12.1055 14.2652 12.0002 14 12.0002C13.7348 12.0002 13.4805 12.1055 13.293 12.293Z" fill="black"/>
<path d="M15.293 23.707C15.4816 23.8892 15.7342 23.99 15.9964 23.9877C16.2586 23.9854 16.5094 23.8802 16.6948 23.6948C16.8802 23.5094 16.9854 23.2586 16.9877 22.9964C16.99 22.7342 16.8892 22.4816 16.707 22.293L11.707 17.293C11.5184 17.1109 11.2658 17.0101 11.0036 17.0123C10.7414 17.0146 10.4906 17.1198 10.3052 17.3052C10.1198 17.4906 10.0146 17.7414 10.0123 18.0036C10.0101 18.2658 10.1109 18.5184 10.293 18.707L15.293 23.707Z" fill="black"/>
<path d="M56 26C56.1811 25.9998 56.3588 25.9503 56.514 25.857L61.514 22.857C61.6291 22.7906 61.7298 22.702 61.8103 22.5963C61.8907 22.4906 61.9493 22.3699 61.9826 22.2413C62.0159 22.1127 62.0232 21.9788 62.0042 21.8473C61.9851 21.7158 61.9401 21.5895 61.8716 21.4756C61.8032 21.3617 61.7128 21.2627 61.6056 21.1841C61.4985 21.1056 61.3768 21.0492 61.2476 21.0182C61.1184 20.9873 60.9843 20.9824 60.8532 21.0038C60.7221 21.0252 60.5966 21.0725 60.484 21.143L55.484 24.143C55.2966 24.2557 55.1513 24.4267 55.0704 24.6298C54.9894 24.833 54.9773 25.057 55.0358 25.2677C55.0944 25.4784 55.2204 25.6641 55.3945 25.7964C55.5686 25.9286 55.7813 26.0001 56 26V26Z" fill="black"/>
<path d="M5.29301 26.707C5.38526 26.8025 5.4956 26.8787 5.61761 26.9311C5.73961 26.9835 5.87083 27.0111 6.00361 27.0123C6.13639 27.0134 6.26807 26.9881 6.39096 26.9378C6.51386 26.8876 6.62551 26.8133 6.71941 26.7194C6.8133 26.6255 6.88755 26.5139 6.93783 26.391C6.98811 26.2681 7.01341 26.1364 7.01226 26.0036C7.01111 25.8708 6.98352 25.7396 6.93111 25.6176C6.8787 25.4956 6.80252 25.3853 6.70701 25.293L3.70701 22.293C3.51841 22.1109 3.26581 22.0101 3.00361 22.0123C2.74141 22.0146 2.4906 22.1198 2.30519 22.3052C2.11978 22.4906 2.01461 22.7414 2.01234 23.0036C2.01006 23.2658 2.11085 23.5184 2.29301 23.707L5.29301 26.707Z" fill="black"/>
<path d="M26.071 9.37101L28.071 14.371C28.1197 14.493 28.192 14.6042 28.2837 14.6983C28.3754 14.7923 28.4847 14.8674 28.6054 14.9192C28.7261 14.9711 28.8559 14.9986 28.9872 15.0003C29.1186 15.0019 29.249 14.9777 29.371 14.929C29.493 14.8803 29.6042 14.808 29.6982 14.7163C29.7923 14.6246 29.8674 14.5153 29.9192 14.3946C29.971 14.2739 29.9986 14.1441 30.0002 14.0128C30.0019 13.8814 29.9777 13.751 29.929 13.629L27.929 8.62901C27.8803 8.50701 27.808 8.3958 27.7163 8.30173C27.6246 8.20767 27.5153 8.13258 27.3945 8.08077C27.2738 8.02895 27.1441 8.00142 27.0127 7.99975C26.8814 7.99807 26.751 8.02229 26.629 8.07101C26.507 8.11973 26.3958 8.192 26.3017 8.2837C26.2076 8.3754 26.1326 8.48472 26.0807 8.60544C25.9761 8.84924 25.9726 9.12462 26.071 9.37101V9.37101Z" fill="black"/>
<path d="M33 14C33 14.2652 33.1054 14.5196 33.2929 14.7071C33.4804 14.8946 33.7348 15 34 15C34.2652 15 34.5196 14.8946 34.7071 14.7071C34.8946 14.5196 35 14.2652 35 14V11C35 10.7348 34.8946 10.4804 34.7071 10.2929C34.5196 10.1054 34.2652 10 34 10C33.7348 10 33.4804 10.1054 33.2929 10.2929C33.1054 10.4804 33 10.7348 33 11V14Z" fill="black"/>
<path d="M39.447 12.105C39.3295 12.0463 39.2015 12.0112 39.0705 12.0019C38.9394 11.9927 38.8078 12.0093 38.6832 12.0509C38.5585 12.0925 38.4433 12.1583 38.3441 12.2444C38.2449 12.3306 38.1637 12.4354 38.105 12.553L37.105 14.553C37.0451 14.6706 37.0091 14.7989 36.999 14.9305C36.9889 15.0621 37.0049 15.1944 37.0462 15.3197C37.0875 15.4451 37.1531 15.561 37.2394 15.6609C37.3257 15.7607 37.431 15.8425 37.549 15.9015C37.6671 15.9605 37.7956 15.9955 37.9273 16.0046C38.059 16.0137 38.1911 15.9966 38.3162 15.9544C38.4412 15.9121 38.5566 15.8455 38.6558 15.7584C38.755 15.6714 38.8359 15.5655 38.894 15.447L39.894 13.447C39.9528 13.3295 39.9879 13.2017 39.9972 13.0706C40.0066 12.9396 39.99 12.808 39.9485 12.6834C39.907 12.5588 39.8414 12.4436 39.7553 12.3443C39.6693 12.2451 39.5645 12.1638 39.447 12.105Z" fill="black"/>
<path d="M6.293 20.293C6.10553 20.4805 6.00021 20.7348 6.00021 21C6.00021 21.2652 6.10553 21.5195 6.293 21.707L8.293 23.707C8.4816 23.8892 8.7342 23.99 8.9964 23.9877C9.2586 23.9854 9.50941 23.8802 9.69482 23.6948C9.88023 23.5094 9.9854 23.2586 9.98767 22.9964C9.98995 22.7342 9.88916 22.4816 9.707 22.293L7.707 20.293C7.51947 20.1055 7.26516 20.0002 7 20.0002C6.73484 20.0002 6.48053 20.1055 6.293 20.293V20.293Z" fill="black"/>
</svg>
